<svg id="svg" version="1.1" xmlns="http://www.w3.org/2000/svg" xmlns:xlink="http://www.w3.org/1999/xlink" width="400" height="400" viewBox="0, 0, 400,400"><g id="svgg"><path id="path0" d="M160.400 154.567 C 155.738 155.622,151.497 158.960,149.481 163.163 C 148.617 164.964,148.598 165.368,148.488 183.592 C 148.420 194.922,148.225 202.335,147.988 202.572 C 147.239 203.321,147.486 240.270,148.242 240.561 C 148.608 240.701,148.785 241.063,148.654 241.403 C 148.528 241.732,148.644 242.003,148.913 242.006 C 149.221 242.010,149.179 242.155,148.800 242.400 C 148.400 242.658,148.367 242.790,148.700 242.794 C 148.975 242.797,149.200 243.070,149.200 243.400 C 149.200 243.730,149.380 244.000,149.600 244.000 C 149.820 244.000,150.000 244.242,150.000 244.538 C 150.000 245.270,151.385 246.475,151.797 246.101 C 151.979 245.935,152.006 246.013,151.858 246.272 C 151.440 247.000,152.351 247.334,153.118 246.734 C 153.711 246.269,153.738 246.280,153.323 246.813 C 152.583 247.764,153.266 248.364,155.258 248.514 C 155.670 248.545,155.870 248.837,155.784 249.282 C 155.662 249.915,156.015 250.105,157.055 249.966 C 157.196 249.947,157.421 250.082,157.555 250.266 C 158.466 251.510,159.634 251.556,190.424 251.574 C 213.523 251.587,221.472 251.472,221.895 251.121 C 222.335 250.756,222.542 250.779,222.824 251.226 C 223.136 251.718,223.189 251.715,223.200 251.200 C 223.208 250.806,223.313 250.753,223.506 251.045 C 223.855 251.574,225.087 251.518,226.200 250.923 C 226.640 250.688,227.595 250.564,228.323 250.647 C 229.073 250.733,229.547 250.637,229.417 250.427 C 229.290 250.222,229.370 249.942,229.593 249.804 C 229.817 249.666,230.000 249.778,230.000 250.053 C 230.000 250.336,230.234 250.233,230.539 249.816 C 230.912 249.305,231.165 249.220,231.363 249.539 C 231.519 249.793,231.952 249.986,232.324 249.968 C 232.740 249.949,232.808 249.859,232.500 249.735 C 231.804 249.454,231.873 248.800,232.600 248.800 C 232.930 248.800,233.200 249.014,233.200 249.276 C 233.200 249.539,233.464 249.404,233.787 248.976 C 234.118 248.539,234.380 248.418,234.387 248.700 C 234.406 249.447,235.200 249.304,235.200 248.553 C 235.200 248.104,235.444 247.970,236.000 248.116 C 236.439 248.231,236.900 248.162,237.023 247.962 C 237.146 247.763,237.687 247.600,238.224 247.600 C 238.761 247.600,239.200 247.420,239.200 247.200 C 239.200 246.980,239.650 246.800,240.200 246.800 C 241.164 246.800,241.368 246.484,241.231 245.200 C 241.181 244.735,241.245 244.716,241.517 245.116 C 241.934 245.731,243.537 245.239,244.365 244.242 C 244.658 243.889,245.133 243.600,245.420 243.600 C 245.707 243.600,246.296 243.150,246.729 242.600 C 247.161 242.050,247.714 241.600,247.958 241.600 C 248.201 241.600,248.400 241.420,248.400 241.200 C 248.400 240.980,248.535 240.838,248.700 240.885 C 249.229 241.035,250.800 239.989,250.800 239.486 C 250.801 239.219,251.704 238.493,252.807 237.873 C 253.911 237.253,254.722 236.597,254.609 236.415 C 254.497 236.233,254.671 235.982,254.996 235.857 C 255.334 235.727,255.485 235.365,255.349 235.011 C 255.169 234.541,255.291 234.456,255.855 234.659 C 256.265 234.807,256.468 234.782,256.306 234.603 C 256.145 234.425,256.325 234.023,256.706 233.710 C 257.088 233.397,257.175 233.255,256.900 233.394 C 256.599 233.547,256.400 233.382,256.400 232.981 C 256.400 232.553,256.615 232.397,257.000 232.545 C 257.415 232.704,257.600 232.518,257.600 231.945 C 257.600 231.384,257.788 231.187,258.180 231.337 C 258.587 231.493,258.686 231.367,258.512 230.914 C 258.341 230.468,258.417 230.363,258.759 230.574 C 259.053 230.756,259.481 230.580,259.814 230.140 C 260.468 229.276,260.574 228.646,260.005 228.997 C 259.778 229.137,259.711 228.977,259.847 228.621 C 259.978 228.279,260.347 228.000,260.666 228.000 C 260.986 228.000,261.136 227.820,261.000 227.600 C 260.864 227.380,260.941 227.200,261.171 227.200 C 261.401 227.200,261.858 226.615,262.187 225.900 C 262.515 225.185,262.940 224.330,263.130 224.000 C 264.174 222.188,264.361 221.623,263.992 221.395 C 263.230 220.924,263.557 219.896,264.399 220.116 C 265.090 220.296,265.171 220.170,264.997 219.183 C 264.877 218.503,264.999 217.912,265.298 217.721 C 265.574 217.544,266.038 216.976,266.330 216.458 C 266.621 215.940,266.678 215.628,266.457 215.765 C 266.236 215.901,265.942 215.830,265.804 215.607 C 265.666 215.383,265.833 215.200,266.176 215.200 C 266.931 215.200,267.052 213.213,266.300 213.175 C 266.025 213.161,266.205 212.987,266.700 212.788 C 267.617 212.419,267.945 211.600,267.176 211.600 C 266.943 211.600,266.887 211.383,267.051 211.117 C 267.389 210.571,267.661 209.118,267.724 207.528 C 267.748 206.938,267.909 206.544,268.084 206.652 C 268.258 206.759,268.400 206.457,268.400 205.981 C 268.400 205.331,268.231 205.179,267.722 205.374 C 267.086 205.619,267.086 205.589,267.722 204.886 C 268.446 204.086,268.762 197.329,268.055 197.766 C 267.866 197.883,267.708 197.579,267.704 197.089 C 267.677 193.663,267.592 193.228,267.000 193.455 C 266.670 193.582,266.400 193.506,266.400 193.286 C 266.400 193.066,266.658 192.787,266.974 192.665 C 267.444 192.485,267.463 192.222,267.083 191.215 C 266.810 190.491,266.408 190.065,266.108 190.180 C 265.720 190.329,265.647 189.895,265.802 188.377 C 265.957 186.868,265.866 186.324,265.433 186.157 C 265.117 186.036,264.926 185.586,265.008 185.158 C 265.091 184.729,264.988 184.484,264.779 184.613 C 264.571 184.742,264.400 184.497,264.400 184.069 C 264.400 183.641,264.139 182.789,263.820 182.174 C 263.502 181.560,263.331 180.912,263.441 180.733 C 263.551 180.555,263.380 180.509,263.061 180.632 C 262.742 180.754,262.362 180.662,262.217 180.427 C 262.072 180.192,262.140 180.000,262.370 180.000 C 262.933 180.000,261.346 177.182,260.266 176.265 C 259.790 175.861,259.670 175.650,260.000 175.795 C 260.479 176.006,260.472 175.953,259.965 175.530 C 259.616 175.238,259.398 174.799,259.480 174.553 C 259.572 174.282,259.218 174.152,258.582 174.222 C 257.605 174.329,257.577 174.289,258.170 173.633 C 258.861 172.870,257.751 171.220,257.004 171.899 C 256.822 172.065,256.789 171.876,256.932 171.479 C 257.086 171.049,257.031 170.857,256.795 171.003 C 256.578 171.137,256.400 171.062,256.400 170.836 C 256.400 170.610,256.137 170.526,255.816 170.649 C 255.397 170.810,255.276 170.643,255.388 170.060 C 255.498 169.493,255.377 169.311,254.989 169.459 C 254.634 169.596,254.341 169.304,254.177 168.650 C 254.036 168.087,253.713 167.666,253.460 167.713 C 253.207 167.761,253.045 167.575,253.100 167.300 C 253.155 167.025,253.018 166.800,252.796 166.800 C 252.006 166.800,248.980 165.184,247.670 164.063 C 245.923 162.568,240.952 159.600,240.195 159.600 C 239.868 159.600,239.600 159.420,239.600 159.200 C 239.600 158.980,239.418 158.800,239.196 158.800 C 238.973 158.800,238.028 158.461,237.096 158.047 C 233.271 156.350,229.530 155.301,225.200 154.713 C 220.498 154.074,163.150 153.945,160.400 154.567 M171.500 250.687 C 170.895 250.778,169.905 250.778,169.300 250.687 C 168.695 250.595,169.190 250.520,170.400 250.520 C 171.610 250.520,172.105 250.595,171.500 250.687 M178.700 250.687 C 178.095 250.778,177.105 250.778,176.500 250.687 C 175.895 250.595,176.390 250.520,177.600 250.520 C 178.810 250.520,179.305 250.595,178.700 250.687 M184.300 250.687 C 183.695 250.778,182.705 250.778,182.100 250.687 C 181.495 250.595,181.990 250.520,183.200 250.520 C 184.410 250.520,184.905 250.595,184.300 250.687 M197.100 250.687 C 196.495 250.778,195.505 250.778,194.900 250.687 C 194.295 250.595,194.790 250.520,196.000 250.520 C 197.210 250.520,197.705 250.595,197.100 250.687 M204.300 250.687 C 203.695 250.778,202.705 250.778,202.100 250.687 C 201.495 250.595,201.990 250.520,203.200 250.520 C 204.410 250.520,204.905 250.595,204.300 250.687 M209.900 250.687 C 209.295 250.778,208.305 250.778,207.700 250.687 C 207.095 250.595,207.590 250.520,208.800 250.520 C 210.010 250.520,210.505 250.595,209.900 250.687 M149.080 274.536 C 148.948 274.880,148.443 275.009,147.673 274.896 C 146.412 274.711,145.102 276.045,145.999 276.599 C 146.529 276.927,146.513 277.600,145.976 277.600 C 145.743 277.600,145.664 277.420,145.800 277.200 C 145.936 276.980,145.851 276.800,145.611 276.800 C 145.363 276.800,145.215 277.392,145.267 278.174 C 145.318 278.930,145.496 279.464,145.663 279.361 C 146.049 279.122,147.253 281.414,146.917 281.749 C 146.779 281.887,146.902 282.000,147.189 282.000 C 147.477 282.000,147.951 281.685,148.243 281.300 C 148.749 280.633,148.775 280.633,148.787 281.300 C 148.807 282.382,150.941 282.202,152.226 281.011 C 153.228 280.082,153.376 278.397,152.403 278.998 C 152.181 279.135,152.000 279.066,152.000 278.843 C 152.000 278.621,152.300 278.272,152.668 278.066 C 153.739 277.467,152.642 275.312,150.895 274.582 C 149.210 273.878,149.331 273.881,149.080 274.536 M266.956 274.630 C 267.084 274.964,266.931 275.200,266.587 275.200 C 266.081 275.200,266.000 277.371,266.000 290.987 C 266.000 305.584,266.050 306.756,266.669 306.518 C 267.179 306.322,267.277 306.423,267.078 306.940 C 266.846 307.546,267.157 307.613,269.986 307.562 L 273.154 307.504 273.277 302.713 C 273.345 300.078,273.265 297.839,273.100 297.737 C 272.542 297.394,272.796 296.800,273.500 296.800 C 273.964 296.800,274.219 297.137,274.258 297.798 C 274.295 298.445,274.155 298.701,273.858 298.529 C 273.325 298.219,274.588 299.795,275.910 301.089 C 276.410 301.579,276.833 302.119,276.850 302.290 C 276.866 302.460,277.042 302.555,277.240 302.500 C 277.438 302.445,277.571 302.535,277.536 302.700 C 277.392 303.384,278.106 304.334,278.616 304.138 C 278.963 304.005,279.259 304.297,279.417 304.926 C 279.971 307.132,281.120 307.643,285.243 307.516 C 288.264 307.423,289.000 307.283,289.000 306.800 C 289.000 306.433,288.707 306.250,288.246 306.330 C 287.718 306.421,287.559 306.283,287.718 305.869 C 287.843 305.544,287.822 305.156,287.672 305.006 C 287.523 304.856,287.396 304.613,287.391 304.467 C 287.386 304.320,286.861 303.660,286.225 303.000 C 285.589 302.340,285.223 302.070,285.411 302.400 C 285.700 302.907,285.654 302.919,285.112 302.481 C 284.681 302.131,284.386 302.099,284.212 302.381 C 283.870 302.934,282.800 302.921,282.800 302.363 C 282.800 302.122,283.160 301.831,283.600 301.716 C 284.544 301.469,284.647 300.870,283.802 300.546 C 283.474 300.419,283.291 300.176,283.397 300.005 C 283.503 299.833,283.052 299.470,282.395 299.198 C 281.738 298.926,281.200 298.534,281.200 298.328 C 281.200 298.122,281.425 298.084,281.700 298.245 C 281.975 298.406,281.861 298.151,281.447 297.678 C 281.032 297.206,280.509 296.932,280.285 297.071 C 280.043 297.220,279.999 297.125,280.177 296.837 C 280.345 296.565,280.184 296.024,279.813 295.615 C 279.345 295.097,279.282 294.796,279.601 294.599 C 279.851 294.445,279.952 294.051,279.826 293.723 C 279.682 293.348,279.885 293.051,280.371 292.924 C 280.878 292.791,281.061 292.504,280.903 292.091 C 280.730 291.639,280.837 291.529,281.282 291.699 C 282.053 291.995,282.810 291.293,282.524 290.547 C 282.372 290.149,282.513 290.069,283.021 290.263 C 283.504 290.449,283.640 290.388,283.445 290.073 C 283.272 289.793,283.365 289.678,283.679 289.783 C 284.309 289.993,287.600 285.934,287.600 284.947 C 287.600 284.313,287.541 284.320,286.967 285.024 C 286.427 285.687,286.367 285.698,286.555 285.100 C 286.825 284.242,286.068 284.159,285.741 285.010 C 285.592 285.398,285.341 285.491,285.053 285.264 C 283.124 283.749,278.000 285.036,278.000 287.036 C 278.000 287.251,277.468 287.742,276.817 288.126 C 276.070 288.567,275.718 289.041,275.860 289.412 C 276.000 289.777,275.845 290.000,275.452 290.000 C 275.104 290.000,274.499 290.488,274.109 291.084 C 273.416 292.142,273.395 291.959,273.200 283.184 L 273.000 274.200 269.869 274.130 C 267.306 274.074,266.777 274.164,266.956 274.630 M271.600 274.809 C 271.600 275.024,270.790 275.200,269.800 275.200 C 268.810 275.200,268.000 275.059,268.000 274.887 C 268.000 274.715,268.810 274.539,269.800 274.496 C 270.790 274.453,271.600 274.593,271.600 274.809 M90.913 275.340 C 90.961 275.593,90.781 275.757,90.513 275.704 C 90.136 275.630,90.046 279.191,90.113 291.504 L 90.200 307.400 97.800 307.470 C 105.490 307.541,107.267 307.295,108.301 306.019 C 108.751 305.463,108.780 305.464,108.584 306.033 C 108.448 306.426,108.593 306.667,108.965 306.667 C 109.295 306.667,109.472 306.517,109.359 306.333 C 109.245 306.150,109.714 306.000,110.400 306.000 C 111.130 306.000,111.545 305.834,111.400 305.600 C 111.264 305.380,111.358 305.200,111.609 305.200 C 112.387 305.200,115.600 302.340,115.600 301.648 C 115.600 301.287,115.981 300.754,116.447 300.463 C 117.055 300.084,117.172 299.812,116.861 299.501 C 116.550 299.190,116.617 298.929,117.099 298.577 C 117.692 298.143,117.702 298.003,117.185 297.368 C 116.660 296.724,116.672 296.677,117.300 296.913 C 118.149 297.231,118.347 294.610,117.500 294.260 C 117.185 294.130,117.305 293.960,117.823 293.800 C 118.804 293.498,119.243 290.400,118.305 290.400 C 117.923 290.400,117.780 289.710,117.788 287.901 C 117.797 285.952,117.669 285.402,117.205 285.401 C 116.878 285.400,116.565 285.040,116.509 284.600 L 116.407 283.800 116.775 284.600 C 117.089 285.282,117.148 285.205,117.172 284.076 C 117.189 283.290,117.038 282.853,116.800 283.000 C 116.580 283.136,116.400 283.057,116.400 282.824 C 116.400 282.591,116.111 282.400,115.757 282.400 C 115.341 282.400,115.198 282.182,115.353 281.779 C 115.489 281.423,115.422 281.263,115.195 281.403 C 114.978 281.537,114.796 281.232,114.792 280.724 C 114.783 279.736,110.380 276.531,109.221 276.669 C 108.903 276.706,108.408 276.436,108.121 276.069 C 107.634 275.445,107.572 275.446,107.189 276.083 C 106.963 276.459,106.515 276.665,106.192 276.541 C 105.869 276.418,105.721 276.128,105.864 275.897 C 106.037 275.616,105.589 275.564,104.503 275.737 C 103.190 275.947,102.834 275.866,102.621 275.309 C 102.395 274.721,102.304 274.707,101.985 275.211 C 101.716 275.636,101.611 275.656,101.606 275.283 C 101.601 274.883,100.379 274.779,96.213 274.823 C 92.400 274.864,90.852 275.015,90.913 275.340 M189.600 275.200 C 190.189 275.580,189.751 275.805,188.718 275.653 C 188.150 275.570,188.337 306.650,188.907 307.123 C 190.068 308.086,206.830 307.670,208.197 306.644 C 208.859 306.147,209.727 305.620,210.128 305.473 C 210.652 305.279,210.781 304.969,210.588 304.362 C 210.361 303.646,210.446 303.561,211.161 303.787 C 212.022 304.061,212.176 303.782,212.011 302.244 C 211.960 301.759,212.122 301.561,212.465 301.692 C 212.867 301.846,213.027 301.314,213.110 299.549 C 213.183 297.985,213.066 297.200,212.761 297.200 C 212.427 297.200,212.434 297.041,212.786 296.617 C 213.301 295.996,212.415 294.118,211.866 294.667 C 211.722 294.812,211.406 294.363,211.165 293.670 C 210.824 292.693,210.385 292.319,209.204 292.001 C 208.367 291.776,207.571 291.301,207.434 290.945 C 207.209 290.358,207.279 290.360,208.197 290.961 C 208.879 291.408,209.174 291.462,209.104 291.126 C 209.047 290.853,209.393 290.450,209.873 290.231 C 211.272 289.594,212.631 286.862,212.030 285.899 C 211.761 285.468,211.703 285.217,211.902 285.339 C 212.103 285.464,212.249 284.463,212.231 283.081 C 212.210 281.408,212.037 280.584,211.700 280.550 C 210.705 280.451,210.647 280.393,211.091 279.949 C 211.710 279.330,210.871 277.998,210.059 278.309 C 209.650 278.467,209.533 278.353,209.688 277.948 C 210.047 277.013,207.622 276.061,207.128 276.943 C 206.926 277.304,206.576 277.600,206.352 277.600 C 206.127 277.600,206.227 277.315,206.575 276.968 C 206.923 276.620,207.105 276.170,206.980 275.968 C 206.674 275.472,205.700 275.500,205.530 276.010 C 205.449 276.254,204.713 276.092,203.716 275.610 C 201.875 274.721,188.245 274.325,189.600 275.200 M100.400 280.811 C 100.400 281.068,101.148 281.137,102.394 280.994 C 104.082 280.801,104.352 280.861,104.151 281.383 C 103.761 282.399,105.798 282.155,106.507 281.100 C 106.840 280.605,107.255 280.338,107.430 280.507 C 107.604 280.675,107.534 281.026,107.273 281.287 C 106.601 281.959,106.687 282.800,107.429 282.800 C 108.244 282.800,109.200 283.765,109.200 284.589 C 109.200 284.970,109.470 285.187,109.859 285.118 C 110.221 285.053,110.604 285.250,110.710 285.556 C 110.844 285.941,110.735 286.009,110.352 285.779 C 109.885 285.498,109.884 285.550,110.345 286.118 C 110.644 286.487,110.900 287.602,110.913 288.595 C 110.937 290.353,111.299 290.910,111.763 289.900 C 111.889 289.625,111.880 289.850,111.742 290.400 C 111.605 290.950,111.341 291.498,111.155 291.618 C 110.747 291.882,110.808 294.800,111.222 294.800 C 111.383 294.800,111.628 295.095,111.766 295.457 C 111.966 295.976,111.904 296.018,111.472 295.660 C 110.834 295.130,109.863 296.779,110.238 297.755 C 110.357 298.065,110.234 298.455,109.965 298.621 C 109.628 298.830,109.575 298.750,109.795 298.362 C 109.971 298.053,109.233 298.640,108.157 299.666 C 106.383 301.358,106.055 301.516,104.652 301.351 C 103.380 301.203,103.145 301.280,103.339 301.785 C 103.469 302.123,103.401 302.400,103.187 302.400 C 102.974 302.400,102.800 302.158,102.800 301.863 C 102.800 301.476,102.051 301.302,100.109 301.239 C 96.676 301.128,97.001 302.201,96.991 290.967 L 96.982 281.200 97.891 281.200 C 98.391 281.200,98.800 281.020,98.800 280.800 C 98.800 280.580,99.160 280.400,99.600 280.400 C 100.040 280.400,100.400 280.585,100.400 280.811 M202.932 280.971 C 203.299 280.830,203.600 280.904,203.600 281.137 C 203.600 281.369,204.047 282.041,204.593 282.630 C 205.138 283.219,205.488 283.858,205.369 284.050 C 205.250 284.243,205.478 284.421,205.876 284.446 C 206.545 284.489,206.547 284.507,205.900 284.676 C 205.295 284.834,204.971 285.825,205.163 286.930 C 205.194 287.111,205.035 287.145,204.810 287.006 C 204.584 286.867,204.400 287.033,204.400 287.376 C 204.400 287.719,204.265 287.979,204.100 287.953 C 203.334 287.832,202.773 288.033,202.974 288.358 C 203.096 288.555,202.917 288.823,202.577 288.954 C 202.201 289.098,202.061 289.025,202.219 288.769 C 202.363 288.536,202.237 288.380,201.940 288.421 C 201.643 288.461,200.027 288.473,198.348 288.447 L 195.297 288.400 195.387 285.900 C 195.576 280.633,195.188 281.200,198.600 281.200 C 200.730 281.200,201.602 281.055,201.606 280.700 C 201.611 280.311,201.684 280.314,201.938 280.714 C 202.118 280.997,202.564 281.112,202.932 280.971 M267.200 281.376 C 267.200 281.693,267.020 282.064,266.800 282.200 C 266.580 282.336,266.400 282.077,266.400 281.624 C 266.400 281.171,266.580 280.800,266.800 280.800 C 267.020 280.800,267.200 281.059,267.200 281.376 M267.200 284.000 C 267.200 284.440,267.020 284.800,266.800 284.800 C 266.580 284.800,266.400 284.440,266.400 284.000 C 266.400 283.560,266.580 283.200,266.800 283.200 C 267.020 283.200,267.200 283.560,267.200 284.000 M129.200 283.967 C 126.693 285.302,126.000 285.616,126.000 285.413 C 126.000 285.286,125.561 285.469,125.024 285.821 C 124.487 286.173,124.140 286.699,124.252 286.990 C 124.378 287.321,124.181 287.498,123.727 287.460 C 123.259 287.421,123.020 287.651,123.056 288.103 C 123.091 288.537,122.746 288.899,122.156 289.047 C 121.619 289.181,121.200 289.583,121.200 289.963 C 121.200 290.336,120.975 290.867,120.700 291.144 C 120.299 291.548,120.339 291.595,120.900 291.381 C 121.306 291.226,121.600 291.301,121.600 291.557 C 121.600 291.801,121.349 292.000,121.042 292.000 C 120.685 292.000,120.430 292.565,120.335 293.566 C 120.252 294.428,120.324 295.047,120.493 294.943 C 120.662 294.838,120.800 295.033,120.800 295.376 C 120.800 295.719,120.530 296.000,120.200 296.000 C 119.485 296.000,119.396 296.665,120.080 296.893 C 120.392 296.997,120.522 297.783,120.451 299.127 C 120.360 300.835,120.457 301.200,121.004 301.200 C 121.368 301.200,121.588 301.425,121.493 301.700 C 121.082 302.879,124.233 306.482,124.861 305.551 C 125.143 305.134,125.205 305.194,125.117 305.800 C 125.033 306.374,125.199 306.567,125.705 306.481 C 126.093 306.416,126.517 306.640,126.647 306.979 C 126.777 307.318,127.033 307.504,127.214 307.391 C 127.396 307.279,127.660 307.373,127.800 307.600 C 127.940 307.827,128.223 307.909,128.428 307.783 C 128.632 307.656,128.800 307.743,128.800 307.976 C 128.800 308.239,130.004 308.400,131.965 308.400 C 135.064 308.400,135.127 308.380,135.025 307.444 C 134.921 306.498,135.615 306.246,136.288 306.986 C 136.460 307.174,136.347 307.182,136.038 307.002 C 135.660 306.783,135.570 306.828,135.762 307.138 C 136.112 307.705,137.200 307.751,137.200 307.200 C 137.200 306.980,137.545 306.800,137.967 306.800 C 138.388 306.800,138.793 306.665,138.867 306.500 C 138.940 306.335,139.678 305.693,140.507 305.074 C 141.337 304.455,141.910 303.778,141.782 303.571 C 141.654 303.364,141.819 303.091,142.149 302.964 C 142.543 302.813,142.742 302.210,142.728 301.204 L 142.707 299.673 139.753 299.643 C 138.062 299.626,136.800 299.781,136.800 300.006 C 136.800 300.223,136.609 300.400,136.376 300.400 C 136.143 300.400,136.081 300.192,136.238 299.938 C 136.416 299.650,136.348 299.585,136.055 299.766 C 135.798 299.925,135.664 300.180,135.758 300.332 C 136.317 301.237,134.733 302.040,132.322 302.073 C 131.485 302.085,130.800 302.273,130.800 302.491 C 130.800 302.710,130.440 302.464,129.999 301.944 C 129.354 301.183,129.251 301.149,129.467 301.766 C 129.888 302.964,128.949 302.181,128.225 300.731 C 127.881 300.041,127.600 299.224,127.600 298.915 C 127.600 298.606,127.432 298.456,127.228 298.583 C 127.023 298.709,126.742 298.630,126.604 298.407 C 126.437 298.136,129.176 298.000,134.789 298.000 C 143.708 298.000,143.471 298.049,143.779 296.131 C 143.844 295.729,143.796 295.227,143.673 295.016 C 143.550 294.805,143.496 293.879,143.552 292.957 C 143.609 292.035,143.463 291.163,143.228 291.017 C 142.992 290.872,142.800 290.403,142.800 289.976 C 142.800 289.549,142.583 289.245,142.319 289.300 C 142.054 289.355,141.829 289.049,141.819 288.619 C 141.807 288.142,141.441 287.753,140.876 287.619 C 140.368 287.499,139.918 287.220,139.876 287.000 C 139.834 286.780,139.575 286.625,139.300 286.656 C 139.025 286.686,138.800 286.350,138.800 285.909 C 138.800 285.269,138.598 285.145,137.800 285.298 C 137.129 285.426,136.800 285.310,136.800 284.945 C 136.800 284.634,136.381 284.400,135.824 284.400 C 135.287 284.400,134.736 284.220,134.599 283.999 C 134.437 283.736,134.057 283.756,133.495 284.056 C 132.853 284.400,132.600 284.400,132.486 284.057 C 132.314 283.541,130.113 283.480,129.200 283.967 M164.246 284.225 C 164.079 284.658,163.652 284.793,162.844 284.666 C 161.964 284.527,161.311 284.788,160.156 285.740 C 159.317 286.432,158.786 286.746,158.977 286.437 C 159.214 286.054,159.177 285.967,158.862 286.162 C 158.608 286.319,158.400 286.707,158.400 287.024 C 158.400 287.341,158.130 287.600,157.800 287.600 C 157.467 287.600,157.200 287.956,157.200 288.400 C 157.200 288.840,157.064 289.200,156.898 289.200 C 156.425 289.200,155.619 291.312,155.753 292.200 C 155.961 293.571,162.260 293.621,162.779 292.255 C 162.983 291.718,163.345 291.158,163.582 291.011 C 163.819 290.865,163.909 290.577,163.783 290.372 C 163.552 289.998,164.119 289.838,165.157 289.983 C 165.464 290.026,165.842 289.856,165.998 289.604 C 166.198 289.280,166.713 289.390,167.766 289.981 C 168.583 290.440,169.424 290.708,169.636 290.578 C 169.847 290.447,169.994 290.489,169.963 290.670 C 169.931 290.852,169.949 291.135,170.003 291.300 C 170.056 291.465,170.145 291.780,170.200 292.000 C 170.255 292.220,170.336 292.445,170.381 292.500 C 170.756 292.966,170.674 294.034,170.292 293.652 C 169.566 292.926,164.936 293.068,164.646 293.825 C 164.514 294.169,164.221 294.337,163.996 294.198 C 163.771 294.059,163.689 293.779,163.814 293.577 C 163.939 293.375,163.762 293.316,163.421 293.447 C 163.079 293.578,162.800 293.816,162.800 293.976 C 162.800 294.136,162.395 294.231,161.900 294.187 C 160.806 294.091,158.871 295.138,158.345 296.111 C 158.133 296.502,157.778 296.710,157.555 296.572 C 156.604 295.985,155.580 297.678,155.796 299.480 C 155.952 300.783,155.858 301.280,155.421 301.447 C 154.936 301.633,154.971 301.816,155.620 302.514 C 156.110 303.039,156.263 303.497,156.028 303.732 C 155.576 304.184,156.712 306.102,157.239 305.776 C 157.433 305.656,157.484 305.838,157.353 306.179 C 157.184 306.619,157.360 306.800,157.957 306.800 C 158.421 306.800,158.800 306.980,158.800 307.200 C 158.800 307.420,159.340 307.600,160.000 307.600 C 160.660 307.600,161.200 307.756,161.200 307.946 C 161.200 308.759,166.985 308.459,167.911 307.597 C 168.400 307.142,168.805 306.911,168.812 307.084 C 168.819 307.258,169.008 307.085,169.232 306.700 C 169.810 305.708,171.453 305.793,171.724 306.830 C 171.966 307.756,176.687 307.930,177.294 307.034 C 177.764 306.340,177.645 304.885,177.100 304.664 C 176.724 304.511,176.748 304.355,177.200 304.030 C 177.733 303.648,177.733 303.552,177.200 303.170 C 176.748 302.845,176.724 302.689,177.100 302.536 C 177.455 302.392,177.600 301.132,177.600 298.200 C 177.600 295.268,177.455 294.008,177.100 293.865 C 176.825 293.754,176.789 293.649,177.020 293.632 C 177.260 293.613,177.370 293.004,177.276 292.203 C 177.181 291.389,176.944 290.911,176.706 291.058 C 176.432 291.228,176.429 291.078,176.697 290.599 C 177.161 289.769,176.323 287.800,175.506 287.800 C 175.228 287.800,174.824 287.398,174.608 286.908 C 174.393 286.417,173.979 285.924,173.688 285.812 C 173.382 285.695,173.270 285.790,173.423 286.037 C 173.569 286.273,172.993 286.038,172.144 285.515 C 171.295 284.992,170.240 284.574,169.800 284.586 C 169.360 284.598,168.645 284.381,168.211 284.104 C 167.073 283.377,164.541 283.455,164.246 284.225 M225.820 284.032 C 226.038 284.385,225.441 284.468,222.903 284.438 C 221.803 284.426,221.240 284.585,221.303 284.891 C 221.356 285.150,221.130 285.381,220.800 285.404 C 219.831 285.471,218.788 286.057,219.007 286.411 C 219.118 286.591,218.622 287.152,217.905 287.656 C 217.187 288.161,216.416 288.760,216.191 288.987 C 215.636 289.547,214.720 293.300,214.720 295.012 C 214.720 295.775,214.552 296.400,214.346 296.400 C 214.140 296.400,214.194 296.805,214.466 297.300 C 214.737 297.795,214.909 298.618,214.847 299.130 C 214.700 300.345,216.725 304.494,217.293 304.142 C 217.542 303.989,217.608 304.063,217.451 304.318 C 217.195 304.731,218.508 305.732,219.400 305.804 C 219.620 305.822,219.747 306.076,219.683 306.369 C 219.605 306.724,219.834 306.832,220.369 306.692 C 220.850 306.566,221.138 306.666,221.086 306.941 C 221.039 307.193,221.208 307.361,221.462 307.313 C 221.716 307.265,222.143 307.490,222.411 307.813 C 223.037 308.568,228.385 308.637,229.179 307.900 C 229.610 307.500,229.661 307.500,229.435 307.900 C 229.280 308.175,229.343 308.400,229.576 308.400 C 229.809 308.400,230.000 308.220,230.000 308.000 C 230.000 307.780,230.360 307.600,230.800 307.600 C 231.240 307.600,231.555 307.375,231.500 307.100 C 231.442 306.812,231.781 306.613,232.300 306.632 C 232.795 306.649,233.200 306.514,233.200 306.332 C 233.200 306.149,233.442 306.000,233.738 306.000 C 234.588 306.000,235.600 304.636,235.425 303.727 C 235.317 303.168,235.464 302.916,235.877 302.950 C 236.214 302.977,236.628 302.730,236.798 302.400 C 237.823 300.410,238.077 299.579,237.846 298.976 C 237.703 298.604,237.791 298.051,238.042 297.749 C 238.385 297.336,238.375 297.052,238.000 296.600 C 237.668 296.200,237.649 296.000,237.941 296.000 C 238.464 296.000,238.075 293.532,237.492 293.148 C 237.274 293.005,237.344 292.801,237.655 292.674 C 238.096 292.493,238.078 292.350,237.560 291.925 C 237.208 291.636,236.979 291.014,237.051 290.542 C 237.123 290.069,236.916 289.462,236.591 289.193 C 236.147 288.824,236.000 288.819,236.000 289.175 C 236.000 289.435,235.805 289.527,235.568 289.380 C 235.330 289.233,235.240 288.693,235.369 288.181 C 235.615 287.202,234.901 286.389,234.445 287.128 C 234.292 287.375,233.953 287.418,233.647 287.229 C 233.248 286.983,233.233 286.827,233.587 286.608 C 233.916 286.405,233.808 286.141,233.229 285.735 C 232.772 285.415,232.230 285.258,232.024 285.385 C 231.818 285.513,231.503 285.364,231.325 285.055 C 231.146 284.747,230.280 284.400,229.400 284.285 C 228.520 284.169,227.310 283.993,226.711 283.894 C 226.112 283.794,225.711 283.856,225.820 284.032 M251.420 284.032 C 251.638 284.385,251.041 284.468,248.503 284.438 C 247.403 284.426,246.840 284.585,246.903 284.891 C 246.956 285.150,246.730 285.381,246.400 285.404 C 245.431 285.471,244.388 286.057,244.607 286.411 C 244.718 286.591,244.222 287.152,243.505 287.656 C 242.787 288.161,242.016 288.760,241.791 288.987 C 241.236 289.547,240.320 293.300,240.320 295.012 C 240.320 295.775,240.152 296.400,239.946 296.400 C 239.740 296.400,239.794 296.805,240.066 297.300 C 240.337 297.795,240.509 298.618,240.447 299.130 C 240.300 300.345,242.325 304.494,242.893 304.142 C 243.142 303.989,243.208 304.063,243.051 304.318 C 242.795 304.731,244.108 305.732,245.000 305.804 C 245.220 305.822,245.347 306.076,245.283 306.369 C 245.205 306.724,245.434 306.832,245.969 306.692 C 246.450 306.566,246.738 306.666,246.686 306.941 C 246.639 307.193,246.808 307.361,247.062 307.313 C 247.316 307.265,247.743 307.490,248.011 307.813 C 248.637 308.568,253.985 308.637,254.779 307.900 C 255.210 307.500,255.261 307.500,255.035 307.900 C 254.880 308.175,254.943 308.400,255.176 308.400 C 255.409 308.400,255.600 308.220,255.600 308.000 C 255.600 307.780,255.960 307.600,256.400 307.600 C 256.840 307.600,257.155 307.375,257.100 307.100 C 257.042 306.812,257.381 306.613,257.900 306.632 C 258.395 306.649,258.800 306.514,258.800 306.332 C 258.800 306.149,259.042 306.000,259.338 306.000 C 260.188 306.000,261.200 304.636,261.025 303.727 C 260.917 303.168,261.064 302.916,261.477 302.950 C 261.814 302.977,262.228 302.730,262.398 302.400 C 263.423 300.410,263.677 299.579,263.446 298.976 C 263.303 298.604,263.391 298.051,263.642 297.749 C 263.985 297.336,263.975 297.052,263.600 296.600 C 263.268 296.200,263.249 296.000,263.541 296.000 C 264.064 296.000,263.675 293.532,263.092 293.148 C 262.874 293.005,262.944 292.801,263.255 292.674 C 263.696 292.493,263.678 292.350,263.160 291.925 C 262.808 291.636,262.579 291.014,262.651 290.542 C 262.723 290.069,262.516 289.462,262.191 289.193 C 261.747 288.824,261.600 288.819,261.600 289.175 C 261.600 289.435,261.405 289.527,261.168 289.380 C 260.930 289.233,260.840 288.693,260.969 288.181 C 261.215 287.202,260.501 286.389,260.045 287.128 C 259.892 287.375,259.553 287.418,259.247 287.229 C 258.848 286.983,258.833 286.827,259.187 286.608 C 259.516 286.405,259.408 286.141,258.829 285.735 C 258.372 285.415,257.830 285.258,257.624 285.385 C 257.418 285.513,257.103 285.364,256.925 285.055 C 256.746 284.747,255.880 284.400,255.000 284.285 C 254.120 284.169,252.910 283.993,252.311 283.894 C 251.712 283.794,251.311 283.856,251.420 284.032 M296.553 284.076 C 296.443 284.254,295.742 284.400,294.996 284.400 C 294.250 284.400,293.496 284.629,293.320 284.908 C 293.144 285.188,292.505 285.634,291.900 285.900 C 291.295 286.165,290.800 286.657,290.800 286.991 C 290.800 287.326,290.637 287.600,290.437 287.600 C 290.238 287.600,290.169 287.960,290.284 288.400 C 290.430 288.956,290.296 289.200,289.847 289.200 C 289.073 289.200,289.017 289.643,289.700 290.379 C 289.980 290.680,290.002 290.807,289.751 290.666 C 289.450 290.498,289.289 291.007,289.265 292.208 C 289.238 293.562,289.378 294.000,289.838 294.000 C 290.173 294.000,290.336 294.180,290.200 294.400 C 290.064 294.620,290.128 294.800,290.343 294.800 C 290.558 294.800,290.834 294.575,290.957 294.300 C 291.079 294.025,291.164 294.250,291.146 294.800 C 291.092 296.361,291.164 296.528,291.701 296.082 C 292.055 295.789,292.430 295.833,292.978 296.233 C 293.404 296.545,293.584 296.801,293.376 296.802 C 293.169 296.804,293.516 297.074,294.146 297.402 C 295.470 298.093,296.155 298.175,295.800 297.600 C 295.454 297.040,296.140 297.100,296.720 297.680 C 296.984 297.944,297.200 298.021,297.200 297.851 C 297.200 297.682,297.493 297.836,297.851 298.193 C 298.208 298.551,298.973 298.791,299.551 298.726 C 300.219 298.651,300.564 298.789,300.500 299.104 C 300.445 299.377,300.760 299.600,301.200 299.600 C 302.277 299.600,302.230 300.732,301.100 302.043 C 299.866 303.474,297.026 302.768,295.823 300.732 C 295.401 300.017,294.983 299.650,294.895 299.916 C 294.806 300.182,294.558 300.400,294.343 300.400 C 294.128 300.400,294.070 300.210,294.214 299.978 C 294.389 299.694,293.541 299.583,291.623 299.639 C 290.055 299.685,288.660 299.902,288.524 300.123 C 288.384 300.349,288.477 300.400,288.738 300.238 C 289.009 300.071,289.200 300.201,289.200 300.553 C 289.200 300.883,289.020 301.264,288.800 301.400 C 288.580 301.536,288.414 301.952,288.432 302.324 C 288.450 302.716,288.546 302.796,288.660 302.514 C 288.877 301.980,290.400 302.685,290.400 303.320 C 290.400 303.500,290.222 303.537,290.005 303.403 C 289.461 303.067,289.972 304.426,290.714 305.291 C 291.040 305.670,291.491 305.868,291.715 305.729 C 291.940 305.590,292.004 305.670,291.858 305.907 C 291.708 306.149,292.146 306.614,292.857 306.969 C 294.377 307.727,294.955 307.774,294.543 307.107 C 294.375 306.836,294.749 307.016,295.373 307.507 C 296.658 308.518,300.178 308.786,300.535 307.900 C 300.696 307.500,300.743 307.500,300.768 307.900 C 300.786 308.175,301.070 308.400,301.400 308.400 C 302.126 308.400,302.197 307.745,301.500 307.467 C 301.225 307.357,301.970 307.358,303.157 307.469 C 305.003 307.643,305.278 307.581,305.071 307.042 C 304.813 306.370,306.080 305.414,306.575 305.908 C 306.993 306.327,308.381 304.334,308.391 303.300 C 308.396 302.805,308.580 302.400,308.800 302.400 C 309.020 302.400,309.200 301.950,309.200 301.400 C 309.200 300.850,308.984 300.400,308.720 300.400 C 308.347 300.400,308.347 300.293,308.720 299.920 C 309.352 299.288,309.338 297.972,308.700 298.100 C 308.418 298.156,308.252 297.890,308.320 297.491 C 308.385 297.101,308.160 296.503,307.820 296.162 C 307.479 295.822,307.195 295.691,307.188 295.871 C 307.181 296.052,306.992 295.885,306.768 295.500 C 306.544 295.115,306.099 294.800,305.780 294.800 C 305.461 294.800,305.200 294.617,305.200 294.394 C 305.200 294.170,304.705 293.992,304.100 293.999 C 302.252 294.018,301.600 293.884,301.600 293.483 C 301.600 293.271,301.066 293.207,300.400 293.340 C 299.484 293.523,299.200 293.435,299.200 292.966 C 299.200 292.629,299.017 292.466,298.793 292.604 C 298.570 292.742,298.493 293.068,298.623 293.328 C 298.753 293.587,298.576 293.451,298.230 293.024 C 297.883 292.596,297.600 292.394,297.600 292.573 C 297.600 292.752,297.338 292.680,297.018 292.415 C 296.697 292.149,296.247 292.047,296.018 292.189 C 295.788 292.331,295.600 292.257,295.600 292.024 C 295.600 291.791,295.780 291.600,296.000 291.600 C 296.220 291.600,296.379 291.465,296.353 291.300 C 296.209 290.389,296.498 290.000,297.320 290.000 C 297.826 290.000,298.456 289.784,298.720 289.520 C 299.093 289.147,299.200 289.157,299.200 289.567 C 299.200 289.913,299.543 290.028,300.200 289.902 C 300.793 289.789,301.200 289.896,301.200 290.167 C 301.200 291.193,302.603 291.800,304.700 291.679 C 306.110 291.598,306.800 291.713,306.800 292.028 C 306.800 292.377,306.953 292.371,307.396 292.004 C 307.723 291.732,307.902 291.365,307.793 291.189 C 307.684 291.013,307.787 290.804,308.022 290.726 C 308.304 290.632,308.258 290.218,307.885 289.498 C 307.575 288.901,307.165 288.544,306.974 288.706 C 306.783 288.868,306.876 288.675,307.181 288.277 C 307.486 287.880,307.570 287.586,307.368 287.625 C 306.504 287.789,305.809 287.582,306.256 287.294 C 306.586 287.081,306.558 286.858,306.156 286.484 C 305.698 286.059,305.600 286.081,305.600 286.608 C 305.600 286.959,305.437 287.146,305.238 287.023 C 305.038 286.900,304.977 286.411,305.101 285.936 C 305.291 285.209,305.191 285.109,304.463 285.300 C 303.988 285.424,303.692 285.375,303.805 285.191 C 304.068 284.766,302.541 284.265,302.001 284.600 C 301.777 284.738,301.305 284.562,300.952 284.209 C 300.283 283.540,296.947 283.439,296.553 284.076 M148.900 284.697 C 146.489 284.812,145.999 284.950,145.996 285.518 C 145.993 285.893,145.964 291.898,145.931 298.863 C 145.884 308.734,145.762 311.483,145.376 311.336 C 145.104 311.231,144.506 311.549,144.048 312.041 C 143.252 312.895,143.178 312.904,142.446 312.242 C 141.459 311.348,141.320 311.651,141.275 314.800 C 141.254 316.230,141.334 317.175,141.452 316.900 C 141.804 316.080,142.511 316.334,142.284 317.200 C 142.029 318.175,144.095 318.363,145.010 317.447 C 145.389 317.068,146.136 316.959,147.382 317.099 C 148.478 317.223,149.200 317.143,149.200 316.899 C 149.200 316.676,149.579 316.394,150.042 316.273 C 150.505 316.152,150.806 315.818,150.710 315.530 C 150.614 315.243,150.955 314.678,151.468 314.275 C 152.269 313.645,152.400 313.185,152.400 311.004 C 152.400 309.533,152.583 308.406,152.835 308.322 C 153.118 308.227,153.166 307.628,152.973 306.595 C 152.733 305.316,152.620 305.165,152.381 305.807 C 152.219 306.243,152.087 302.100,152.087 296.600 C 152.087 291.100,152.254 286.285,152.458 285.900 C 152.704 285.434,152.682 285.200,152.390 285.200 C 152.150 285.200,152.064 285.020,152.200 284.800 C 152.336 284.580,152.302 284.436,152.124 284.479 C 151.946 284.523,150.495 284.621,148.900 284.697 M194.860 289.400 C 194.860 289.609,194.667 289.845,194.430 289.923 C 194.194 290.002,194.000 289.767,194.000 289.400 C 194.000 289.033,194.194 288.798,194.430 288.877 C 194.667 288.955,194.860 289.191,194.860 289.400 M132.200 289.600 C 132.336 289.820,132.752 290.004,133.124 290.009 C 133.496 290.014,134.239 290.355,134.775 290.767 C 135.312 291.180,136.018 291.414,136.345 291.289 C 136.781 291.122,136.867 291.248,136.669 291.763 C 136.521 292.149,136.400 292.631,136.400 292.833 C 136.400 293.571,127.715 293.277,127.428 292.529 C 127.275 292.130,127.451 291.603,127.863 291.229 C 128.509 290.643,128.517 290.652,127.978 291.365 C 127.437 292.083,127.456 292.101,128.279 291.662 C 128.763 291.405,129.438 290.795,129.779 290.308 C 130.121 289.821,130.400 289.588,130.400 289.791 C 130.400 289.994,130.616 289.944,130.880 289.680 C 131.465 289.095,131.873 289.070,132.200 289.600 M227.600 290.018 C 227.710 290.060,227.935 290.073,228.100 290.047 C 228.265 290.021,228.400 290.180,228.400 290.400 C 228.400 290.620,228.681 290.800,229.024 290.800 C 229.367 290.800,229.549 290.960,229.428 291.155 C 229.307 291.350,229.432 291.502,229.704 291.492 C 231.440 291.429,232.184 291.633,231.557 292.000 C 230.846 292.416,230.615 296.000,231.300 296.000 C 231.512 296.000,231.590 296.248,231.474 296.551 C 231.358 296.854,231.438 297.278,231.652 297.492 C 231.904 297.744,231.670 298.124,230.986 298.572 C 230.405 298.953,230.030 299.363,230.151 299.485 C 230.512 299.845,229.618 301.200,229.019 301.200 C 228.715 301.200,228.407 301.380,228.333 301.599 C 228.260 301.819,227.470 302.027,226.578 302.062 C 223.678 302.175,221.968 299.801,221.862 295.516 C 221.828 294.132,221.652 292.771,221.470 292.490 C 221.289 292.210,221.289 292.020,221.470 292.069 C 222.191 292.264,223.498 291.539,223.950 290.693 C 224.373 289.901,226.340 289.538,227.600 290.018 M253.200 290.018 C 253.310 290.060,253.535 290.073,253.700 290.047 C 253.865 290.021,254.000 290.180,254.000 290.400 C 254.000 290.620,254.281 290.800,254.624 290.800 C 254.967 290.800,255.149 290.960,255.028 291.155 C 254.907 291.350,255.032 291.502,255.304 291.492 C 257.040 291.429,257.784 291.633,257.157 292.000 C 256.446 292.416,256.215 296.000,256.900 296.000 C 257.112 296.000,257.190 296.248,257.074 296.551 C 256.958 296.854,257.038 297.278,257.252 297.492 C 257.504 297.744,257.270 298.124,256.586 298.572 C 256.005 298.953,255.630 299.363,255.751 299.485 C 256.112 299.845,255.218 301.200,254.619 301.200 C 254.315 301.200,254.007 301.380,253.933 301.599 C 253.860 301.819,253.070 302.027,252.178 302.062 C 249.278 302.175,247.568 299.801,247.462 295.516 C 247.428 294.132,247.252 292.771,247.070 292.490 C 246.889 292.210,246.889 292.020,247.070 292.069 C 247.791 292.264,249.098 291.539,249.550 290.693 C 249.973 289.901,251.940 289.538,253.200 290.018 M127.200 293.447 C 127.200 293.777,127.020 293.936,126.800 293.800 C 126.580 293.664,126.400 293.283,126.400 292.953 C 126.400 292.623,126.580 292.464,126.800 292.600 C 127.020 292.736,127.200 293.117,127.200 293.447 M168.500 293.882 C 168.005 293.978,167.195 293.978,166.700 293.882 C 166.205 293.787,166.610 293.709,167.600 293.709 C 168.590 293.709,168.995 293.787,168.500 293.882 M204.000 294.400 C 203.515 294.714,203.572 294.789,204.300 294.794 C 204.795 294.797,205.200 295.044,205.200 295.342 C 205.200 295.639,205.650 296.369,206.200 296.962 C 207.358 298.211,207.441 298.467,206.584 298.138 C 206.245 298.008,206.013 298.059,206.068 298.251 C 206.764 300.658,204.367 302.433,200.875 302.098 C 199.484 301.964,198.800 302.047,198.800 302.349 C 198.800 303.043,196.826 302.883,196.071 302.129 C 195.539 301.596,195.400 300.686,195.400 297.729 L 195.400 294.000 200.000 294.006 C 203.118 294.010,204.407 294.137,204.000 294.400 M164.599 298.800 C 165.124 298.800,165.664 298.620,165.800 298.400 C 165.936 298.180,166.352 298.003,166.724 298.006 C 167.307 298.011,167.317 298.066,166.800 298.400 C 166.366 298.680,166.726 298.789,168.100 298.794 C 169.552 298.799,170.000 298.947,170.000 299.424 C 170.000 299.767,169.839 299.948,169.642 299.826 C 169.287 299.606,168.612 300.716,168.740 301.309 C 168.776 301.480,168.261 301.728,167.595 301.861 C 166.128 302.154,165.767 302.637,166.423 303.427 C 166.693 303.753,166.790 304.144,166.638 304.296 C 166.288 304.646,165.016 303.863,164.950 303.256 C 164.923 303.005,164.878 302.598,164.850 302.350 C 164.819 302.071,164.358 301.988,163.636 302.133 C 162.355 302.389,161.645 301.509,162.400 300.600 C 162.628 300.326,162.704 299.764,162.569 299.351 C 162.372 298.747,162.406 298.715,162.741 299.188 C 162.969 299.512,163.285 299.648,163.442 299.491 C 163.600 299.334,163.430 298.875,163.064 298.471 C 162.699 298.067,162.400 297.576,162.400 297.380 C 162.400 297.183,162.680 297.422,163.023 297.911 C 163.370 298.407,164.067 298.800,164.599 298.800 M267.200 298.624 C 267.200 298.941,267.020 299.200,266.800 299.200 C 266.580 299.200,266.400 298.829,266.400 298.376 C 266.400 297.923,266.580 297.664,266.800 297.800 C 267.020 297.936,267.200 298.307,267.200 298.624 M115.072 301.605 C 115.004 302.048,114.709 302.633,114.416 302.905 C 113.984 303.306,113.950 303.286,114.235 302.800 C 114.582 302.210,114.650 301.997,114.750 301.200 C 114.778 300.980,114.889 300.800,114.997 300.800 C 115.106 300.800,115.140 301.162,115.072 301.605 M99.700 301.882 C 99.205 301.978,98.395 301.978,97.900 301.882 C 97.405 301.787,97.810 301.709,98.800 301.709 C 99.790 301.709,100.195 301.787,99.700 301.882 " stroke="none" fill="#84836c" fill-rule="evenodd"></path><path id="path1" d="M142.979 104.835 C 142.854 105.036,142.416 105.200,142.003 105.200 C 141.591 105.200,141.140 105.560,141.000 106.000 C 140.860 106.440,140.568 106.800,140.349 106.800 C 140.131 106.800,140.064 106.620,140.200 106.400 C 140.336 106.180,140.257 106.000,140.024 106.000 C 139.791 106.000,139.600 106.136,139.600 106.302 C 139.600 106.469,139.060 106.844,138.400 107.136 C 137.740 107.428,137.200 107.854,137.200 108.083 C 137.200 108.345,137.408 108.325,137.764 108.030 C 138.102 107.749,138.423 107.713,138.562 107.939 C 138.836 108.381,137.695 108.906,137.167 108.580 C 136.751 108.322,134.800 110.150,134.800 110.799 C 134.800 111.038,134.440 111.620,134.000 112.092 C 133.534 112.592,133.200 113.504,133.200 114.275 C 133.200 115.004,133.020 115.600,132.800 115.600 C 132.230 115.600,132.250 191.372,132.820 192.437 C 133.051 192.869,133.392 193.128,133.578 193.014 C 133.970 192.771,134.533 194.001,134.188 194.346 C 134.061 194.473,133.789 194.312,133.584 193.988 C 133.380 193.665,133.209 193.591,133.206 193.825 C 133.203 194.058,133.560 194.636,134.000 195.108 C 134.440 195.580,134.800 196.172,134.800 196.423 C 134.800 197.046,138.396 200.400,139.064 200.400 C 139.359 200.400,139.600 200.580,139.600 200.800 C 139.600 201.020,139.960 201.200,140.400 201.200 C 140.840 201.200,141.200 201.380,141.200 201.600 C 141.200 201.820,141.549 202.000,141.976 202.000 C 142.403 202.000,142.864 202.180,143.000 202.400 C 143.370 202.998,146.799 202.908,146.806 202.300 C 146.810 201.967,146.942 202.000,147.200 202.400 C 147.453 202.792,147.590 196.306,147.594 183.695 C 147.597 173.077,147.759 164.077,147.953 163.695 C 148.148 163.313,148.551 162.481,148.849 161.848 C 150.148 159.088,156.014 154.000,157.898 154.000 C 158.306 154.000,158.823 153.817,159.047 153.593 C 159.686 152.954,226.071 153.297,228.400 153.952 C 229.390 154.230,230.787 154.555,231.504 154.673 C 232.221 154.792,232.906 155.049,233.027 155.244 C 233.148 155.440,233.599 155.600,234.029 155.600 C 234.459 155.600,235.123 155.752,235.505 155.937 C 236.288 156.316,239.681 157.865,241.200 158.537 C 241.750 158.780,243.225 159.658,244.478 160.489 C 245.731 161.320,246.946 162.000,247.178 162.000 C 247.410 162.000,247.600 162.180,247.600 162.400 C 247.600 162.620,247.766 162.800,247.969 162.800 C 248.172 162.800,248.892 163.353,249.568 164.030 C 251.303 165.764,253.451 164.748,251.928 162.914 C 251.694 162.631,251.666 162.400,251.866 162.400 C 252.066 162.400,252.259 162.011,252.295 161.536 C 252.331 161.061,252.534 160.564,252.747 160.433 C 253.270 160.110,253.293 153.195,252.774 152.568 C 252.490 152.226,252.492 151.990,252.781 151.812 C 253.011 151.669,253.186 151.068,253.168 150.476 C 253.151 149.884,253.046 149.625,252.935 149.900 C 252.824 150.175,252.540 150.400,252.305 150.400 C 252.069 150.400,252.212 150.029,252.622 149.576 C 253.188 148.950,253.248 148.677,252.870 148.443 C 252.545 148.243,252.367 147.069,252.356 145.068 C 252.347 143.381,252.174 142.000,251.970 142.000 C 251.767 142.000,251.600 141.404,251.600 140.675 C 251.600 139.895,251.265 138.991,250.784 138.475 C 250.336 137.994,250.156 137.600,250.384 137.600 C 250.613 137.600,250.800 137.330,250.800 137.000 C 250.800 136.670,250.620 136.400,250.400 136.400 C 250.180 136.400,250.000 136.040,250.000 135.600 C 250.000 135.160,249.747 134.800,249.437 134.800 C 249.057 134.800,248.948 134.519,249.102 133.933 C 249.274 133.274,249.184 133.121,248.727 133.296 C 248.268 133.472,248.169 133.298,248.309 132.563 C 248.410 132.034,248.321 131.600,248.111 131.600 C 247.900 131.600,247.490 130.880,247.200 130.000 C 246.910 129.120,246.521 128.400,246.336 128.400 C 246.151 128.400,246.000 128.164,246.000 127.875 C 246.000 127.587,245.640 126.964,245.200 126.492 C 244.760 126.020,244.400 125.464,244.400 125.257 C 244.400 125.050,243.500 123.962,242.400 122.839 C 241.300 121.715,240.400 120.662,240.400 120.498 C 240.399 119.992,238.671 118.211,237.200 117.200 C 236.430 116.671,235.495 115.898,235.121 115.482 C 234.748 115.067,234.265 114.836,234.049 114.970 C 233.832 115.104,233.525 115.002,233.366 114.745 C 233.185 114.452,233.250 114.384,233.538 114.562 C 233.792 114.719,234.000 114.734,234.000 114.595 C 234.000 114.177,232.888 113.200,232.412 113.200 C 232.167 113.200,231.575 112.836,231.097 112.390 C 230.619 111.945,229.997 111.669,229.714 111.778 C 229.431 111.886,229.200 111.711,229.200 111.387 C 229.200 111.064,228.840 110.800,228.400 110.800 C 227.960 110.800,227.600 110.663,227.600 110.496 C 227.600 109.855,225.980 109.182,225.291 109.537 C 224.508 109.939,223.600 109.728,223.600 109.143 C 223.600 108.928,223.808 108.881,224.062 109.038 C 224.348 109.215,224.415 109.148,224.238 108.862 C 224.081 108.608,223.513 108.400,222.976 108.400 C 222.439 108.400,222.000 108.263,222.000 108.096 C 222.000 107.929,221.647 107.572,221.215 107.302 C 220.558 106.892,220.467 106.909,220.658 107.406 C 221.044 108.413,219.674 108.085,218.963 107.000 C 218.478 106.259,217.957 106.000,216.954 106.000 C 216.208 106.000,215.600 105.795,215.600 105.544 C 215.600 105.232,214.965 105.164,213.581 105.328 C 212.058 105.508,211.510 105.430,211.349 105.010 C 211.082 104.314,203.970 104.271,203.506 104.962 C 203.304 105.263,203.210 105.244,203.206 104.900 C 203.197 104.193,201.733 104.277,201.455 105.000 C 201.329 105.330,201.039 105.600,200.813 105.600 C 200.586 105.600,200.400 105.330,200.400 105.000 C 200.400 104.491,199.400 104.400,193.800 104.400 C 188.200 104.400,187.200 104.491,187.200 105.000 C 187.200 105.330,187.020 105.600,186.800 105.600 C 186.580 105.600,186.400 105.330,186.400 105.000 C 186.400 104.528,185.844 104.400,183.800 104.400 C 181.369 104.400,180.318 104.911,181.900 105.324 C 182.326 105.435,182.164 105.525,181.487 105.554 C 180.834 105.581,180.280 105.353,180.145 105.000 C 179.866 104.275,178.148 104.199,177.865 104.900 C 177.704 105.300,177.657 105.300,177.632 104.900 C 177.587 104.194,176.133 104.276,175.855 105.000 C 175.729 105.330,175.439 105.600,175.213 105.600 C 174.986 105.600,174.800 105.330,174.800 105.000 C 174.800 104.491,173.800 104.400,168.200 104.400 C 162.600 104.400,161.600 104.491,161.600 105.000 C 161.600 105.330,161.420 105.600,161.200 105.600 C 160.980 105.600,160.800 105.330,160.800 105.000 C 160.800 104.528,160.244 104.400,158.200 104.400 C 155.769 104.400,154.718 104.911,156.300 105.324 C 156.726 105.435,156.564 105.525,155.887 105.554 C 155.234 105.581,154.680 105.353,154.545 105.000 C 154.266 104.275,152.548 104.199,152.265 104.900 C 152.104 105.300,152.057 105.300,152.032 104.900 C 151.985 104.163,150.772 104.292,150.144 105.100 C 149.631 105.760,149.570 105.761,149.066 105.114 C 148.480 104.361,143.415 104.129,142.979 104.835 M254.493 168.400 C 254.768 168.840,255.131 169.200,255.300 169.200 C 255.469 169.200,255.382 168.840,255.107 168.400 C 254.832 167.960,254.469 167.600,254.300 167.600 C 254.131 167.600,254.218 167.960,254.493 168.400 M152.920 288.000 C 152.920 289.210,152.995 289.705,153.087 289.100 C 153.178 288.495,153.178 287.505,153.087 286.900 C 152.995 286.295,152.920 286.790,152.920 288.000 M211.402 293.202 C 211.802 293.644,212.211 293.922,212.312 293.821 C 212.528 293.605,211.388 292.400,210.967 292.400 C 210.807 292.400,211.003 292.761,211.402 293.202 M152.920 296.000 C 152.920 297.210,152.995 297.705,153.087 297.100 C 153.178 296.495,153.178 295.505,153.087 294.900 C 152.995 294.295,152.920 294.790,152.920 296.000 M142.971 300.400 C 142.971 300.840,143.113 301.200,143.286 301.200 C 143.459 301.200,143.600 300.840,143.600 300.400 C 143.600 299.960,143.459 299.600,143.286 299.600 C 143.113 299.600,142.971 299.960,142.971 300.400 M204.860 300.242 C 204.562 300.578,204.399 300.932,204.495 301.029 C 204.592 301.126,204.998 300.844,205.398 300.402 C 205.797 299.961,205.961 299.607,205.762 299.615 C 205.563 299.624,205.157 299.905,204.860 300.242 M152.909 303.600 C 152.909 304.590,152.987 304.995,153.082 304.500 C 153.178 304.005,153.178 303.195,153.082 302.700 C 152.987 302.205,152.909 302.610,152.909 303.600 " stroke="none" fill="#936c4c" fill-rule="evenodd"></path><path id="path2" d="M223.700 154.687 C 224.305 154.778,225.295 154.778,225.900 154.687 C 226.505 154.595,226.010 154.520,224.800 154.520 C 223.590 154.520,223.095 154.595,223.700 154.687 M155.900 155.829 C 154.349 156.670,154.525 156.961,156.100 156.159 C 157.608 155.393,157.875 155.194,157.367 155.216 C 157.165 155.225,156.505 155.501,155.900 155.829 M152.378 158.663 C 151.286 159.823,151.220 159.968,152.062 159.363 C 152.980 158.703,154.245 157.200,153.882 157.200 C 153.813 157.200,153.137 157.858,152.378 158.663 M254.243 168.969 C 254.364 169.282,254.729 169.641,255.056 169.766 C 255.383 169.892,255.539 170.176,255.402 170.397 C 255.265 170.619,255.343 170.800,255.576 170.800 C 256.244 170.800,256.073 170.073,255.200 169.200 C 254.258 168.258,253.941 168.181,254.243 168.969 M265.693 189.385 C 265.633 190.105,265.769 190.310,266.198 190.145 C 266.642 189.975,266.686 189.734,266.379 189.160 C 265.854 188.180,265.791 188.201,265.693 189.385 M266.944 192.266 C 267.087 192.522,266.979 192.812,266.702 192.911 C 266.426 193.010,266.338 193.238,266.507 193.419 C 266.675 193.599,267.026 193.534,267.287 193.273 C 267.651 192.909,267.636 192.685,267.221 192.300 C 266.875 191.979,266.776 191.966,266.944 192.266 M265.149 217.700 C 264.926 218.137,264.973 219.540,265.207 219.396 C 265.669 219.110,265.968 217.600,265.563 217.600 C 265.363 217.600,265.177 217.645,265.149 217.700 M263.600 220.576 C 263.600 221.423,264.277 221.697,264.558 220.965 C 264.900 220.073,264.873 220.000,264.200 220.000 C 263.870 220.000,263.600 220.259,263.600 220.576 M258.071 231.054 C 257.780 231.370,257.615 231.846,257.704 232.113 C 257.798 232.395,258.075 232.207,258.365 231.665 C 258.958 230.557,258.811 230.251,258.071 231.054 M248.400 241.200 C 248.400 241.420,248.149 241.600,247.843 241.600 C 247.536 241.600,247.182 241.871,247.055 242.201 C 246.858 242.713,246.971 242.707,247.812 242.155 C 248.689 241.581,249.143 240.800,248.600 240.800 C 248.490 240.800,248.400 240.980,248.400 241.200 M152.786 247.017 C 152.369 247.519,152.371 247.724,152.796 248.117 C 153.212 248.502,153.272 248.468,153.090 247.949 C 152.965 247.591,153.064 247.096,153.311 246.849 C 153.558 246.602,153.656 246.400,153.529 246.400 C 153.402 246.400,153.068 246.678,152.786 247.017 M154.391 248.874 C 155.492 249.904,155.706 249.919,155.845 248.974 C 155.897 248.618,155.845 248.422,155.729 248.538 C 155.613 248.654,155.041 248.569,154.459 248.348 L 153.400 247.948 154.391 248.874 M232.000 249.157 C 232.000 249.354,232.270 249.618,232.600 249.745 C 232.965 249.885,233.200 249.745,233.200 249.387 C 233.200 249.064,232.930 248.800,232.600 248.800 C 232.270 248.800,232.000 248.961,232.000 249.157 M169.300 250.687 C 169.905 250.778,170.895 250.778,171.500 250.687 C 172.105 250.595,171.610 250.520,170.400 250.520 C 169.190 250.520,168.695 250.595,169.300 250.687 M176.500 250.687 C 177.105 250.778,178.095 250.778,178.700 250.687 C 179.305 250.595,178.810 250.520,177.600 250.520 C 176.390 250.520,175.895 250.595,176.500 250.687 M182.100 250.687 C 182.705 250.778,183.695 250.778,184.300 250.687 C 184.905 250.595,184.410 250.520,183.200 250.520 C 181.990 250.520,181.495 250.595,182.100 250.687 M194.900 250.687 C 195.505 250.778,196.495 250.778,197.100 250.687 C 197.705 250.595,197.210 250.520,196.000 250.520 C 194.790 250.520,194.295 250.595,194.900 250.687 M202.100 250.687 C 202.705 250.778,203.695 250.778,204.300 250.687 C 204.905 250.595,204.410 250.520,203.200 250.520 C 201.990 250.520,201.495 250.595,202.100 250.687 M207.700 250.687 C 208.305 250.778,209.295 250.778,209.900 250.687 C 210.505 250.595,210.010 250.520,208.800 250.520 C 207.590 250.520,207.095 250.595,207.700 250.687 M268.000 274.887 C 268.000 275.059,268.810 275.200,269.800 275.200 C 270.790 275.200,271.600 275.024,271.600 274.809 C 271.600 274.593,270.790 274.453,269.800 274.496 C 268.810 274.539,268.000 274.715,268.000 274.887 M105.826 275.958 C 105.704 276.155,105.856 276.413,106.163 276.531 C 106.750 276.756,107.200 276.496,107.200 275.933 C 107.200 275.487,106.105 275.506,105.826 275.958 M152.697 278.050 C 151.849 278.524,151.788 279.067,152.583 279.067 C 152.903 279.067,153.268 278.801,153.392 278.476 C 153.696 277.685,153.530 277.584,152.697 278.050 M145.574 279.552 C 145.824 280.018,145.919 280.400,145.786 280.400 C 145.652 280.400,145.813 280.670,146.143 281.000 C 146.473 281.330,146.850 281.600,146.982 281.600 C 147.329 281.600,146.085 279.300,145.563 278.977 C 145.248 278.782,145.251 278.948,145.574 279.552 M210.970 279.878 C 211.029 280.275,211.209 280.570,211.371 280.533 C 211.979 280.396,212.002 280.100,211.442 279.635 C 210.972 279.245,210.884 279.290,210.970 279.878 M98.800 280.800 C 98.800 281.020,99.160 281.200,99.600 281.200 C 100.040 281.200,100.400 281.020,100.400 280.800 C 100.400 280.580,100.040 280.400,99.600 280.400 C 99.160 280.400,98.800 280.580,98.800 280.800 M106.396 281.208 C 106.158 281.653,106.080 282.206,106.224 282.438 C 106.433 282.777,107.600 281.180,107.600 280.554 C 107.600 280.068,106.763 280.522,106.396 281.208 M102.626 281.158 C 102.242 281.780,103.519 281.980,104.020 281.376 C 104.410 280.906,104.346 280.800,103.673 280.800 C 103.219 280.800,102.748 280.961,102.626 281.158 M266.400 281.624 C 266.400 282.077,266.580 282.336,266.800 282.200 C 267.020 282.064,267.200 281.693,267.200 281.376 C 267.200 281.059,267.020 280.800,266.800 280.800 C 266.580 280.800,266.400 281.171,266.400 281.624 M212.109 283.991 C 212.143 284.436,212.312 284.800,212.485 284.800 C 212.927 284.800,212.879 283.696,212.424 283.415 C 212.218 283.287,212.076 283.547,212.109 283.991 M266.400 284.000 C 266.400 284.440,266.580 284.800,266.800 284.800 C 267.020 284.800,267.200 284.440,267.200 284.000 C 267.200 283.560,267.020 283.200,266.800 283.200 C 266.580 283.200,266.400 283.560,266.400 284.000 M116.523 284.562 C 116.565 284.981,116.916 285.371,117.302 285.427 C 117.688 285.484,117.901 285.363,117.774 285.158 C 117.648 284.954,117.391 284.882,117.203 284.998 C 117.014 285.115,116.767 284.893,116.653 284.505 C 116.477 283.905,116.457 283.914,116.523 284.562 M223.200 284.400 C 222.667 284.745,222.667 284.788,223.200 284.788 C 223.530 284.788,224.070 284.613,224.400 284.400 C 224.933 284.055,224.933 284.012,224.400 284.012 C 224.070 284.012,223.530 284.187,223.200 284.400 M248.800 284.400 C 248.267 284.745,248.267 284.788,248.800 284.788 C 249.130 284.788,249.670 284.613,250.000 284.400 C 250.533 284.055,250.533 284.012,250.000 284.012 C 249.670 284.012,249.130 284.187,248.800 284.400 M147.491 284.689 C 148.201 284.777,149.461 284.779,150.291 284.692 C 151.121 284.605,150.540 284.533,149.000 284.531 C 147.460 284.529,146.781 284.600,147.491 284.689 M170.800 284.595 C 170.800 284.664,171.420 285.087,172.177 285.533 C 172.948 285.988,173.471 286.130,173.366 285.857 C 173.204 285.434,170.800 284.252,170.800 284.595 M282.792 284.697 C 283.778 284.784,284.792 285.027,285.045 285.238 C 285.354 285.494,285.584 285.419,285.741 285.010 C 285.937 284.499,285.570 284.411,283.487 284.470 C 281.354 284.530,281.255 284.562,282.792 284.697 M291.817 285.572 C 291.551 286.003,292.334 286.599,292.693 286.240 C 292.825 286.108,292.678 285.987,292.367 285.972 C 292.032 285.955,292.128 285.803,292.600 285.600 C 293.252 285.320,293.275 285.251,292.724 285.228 C 292.352 285.213,291.944 285.368,291.817 285.572 M152.000 287.200 C 152.000 287.640,152.180 288.000,152.400 288.000 C 152.620 288.000,152.800 287.640,152.800 287.200 C 152.800 286.760,152.620 286.400,152.400 286.400 C 152.180 286.400,152.000 286.760,152.000 287.200 M174.400 286.751 C 174.400 286.944,174.670 287.326,175.000 287.600 C 175.651 288.141,175.733 288.011,175.357 287.033 C 175.100 286.363,174.400 286.157,174.400 286.751 M217.762 287.258 C 217.005 288.110,217.006 288.113,217.878 287.656 C 218.850 287.146,219.449 286.400,218.886 286.400 C 218.687 286.400,218.181 286.786,217.762 287.258 M233.426 286.758 C 233.304 286.955,233.474 287.219,233.802 287.346 C 234.165 287.485,234.400 287.344,234.400 286.987 C 234.400 286.340,233.775 286.193,233.426 286.758 M243.362 287.258 C 242.605 288.110,242.606 288.113,243.478 287.656 C 244.450 287.146,245.049 286.400,244.486 286.400 C 244.287 286.400,243.781 286.786,243.362 287.258 M259.026 286.758 C 258.904 286.955,259.074 287.219,259.402 287.346 C 259.765 287.485,260.000 287.344,260.000 286.987 C 260.000 286.340,259.375 286.193,259.026 286.758 M96.928 289.200 C 96.928 290.630,97.001 291.215,97.089 290.500 C 97.178 289.785,97.178 288.615,97.089 287.900 C 97.001 287.185,96.928 287.770,96.928 289.200 M235.200 288.553 C 235.200 288.883,235.380 289.264,235.600 289.400 C 235.820 289.536,236.000 289.377,236.000 289.047 C 236.000 288.717,235.820 288.336,235.600 288.200 C 235.380 288.064,235.200 288.223,235.200 288.553 M260.800 288.553 C 260.800 288.883,260.980 289.264,261.200 289.400 C 261.420 289.536,261.600 289.377,261.600 289.047 C 261.600 288.717,261.420 288.336,261.200 288.200 C 260.980 288.064,260.800 288.223,260.800 288.553 M289.600 288.600 C 289.600 288.930,289.780 289.200,290.000 289.200 C 290.220 289.200,290.400 288.930,290.400 288.600 C 290.400 288.270,290.220 288.000,290.000 288.000 C 289.780 288.000,289.600 288.270,289.600 288.600 M145.378 289.235 C 145.231 289.474,145.310 289.870,145.555 290.115 C 145.882 290.442,146.000 290.326,146.000 289.680 C 146.000 288.714,145.792 288.565,145.378 289.235 M152.048 296.000 C 152.040 300.359,152.187 303.200,152.420 303.200 C 152.655 303.200,152.784 300.387,152.750 296.000 C 152.719 292.040,152.552 288.800,152.378 288.800 C 152.204 288.800,152.056 292.040,152.048 296.000 M194.000 289.400 C 194.000 289.767,194.194 290.002,194.430 289.923 C 194.667 289.845,194.860 289.609,194.860 289.400 C 194.860 289.191,194.667 288.955,194.430 288.877 C 194.194 288.798,194.000 289.033,194.000 289.400 M207.449 290.983 C 207.656 291.523,210.359 292.574,210.690 292.243 C 210.764 292.169,210.369 291.810,209.812 291.445 C 209.256 291.080,208.800 290.882,208.800 291.005 C 208.800 291.128,208.444 291.038,208.009 290.805 C 207.366 290.461,207.261 290.494,207.449 290.983 M230.117 292.073 C 230.897 293.127,231.530 293.657,231.015 292.825 C 230.888 292.618,231.050 292.300,231.376 292.118 C 231.824 291.867,231.642 291.684,230.626 291.366 L 229.284 290.946 230.117 292.073 M255.717 292.073 C 256.497 293.127,257.130 293.657,256.615 292.825 C 256.488 292.618,256.650 292.300,256.976 292.118 C 257.424 291.867,257.242 291.684,256.226 291.366 L 254.884 290.946 255.717 292.073 M303.700 291.887 C 304.305 291.978,305.295 291.978,305.900 291.887 C 306.505 291.795,306.010 291.720,304.800 291.720 C 303.590 291.720,303.095 291.795,303.700 291.887 M177.303 292.700 C 177.437 293.241,177.341 293.602,177.063 293.606 C 176.720 293.611,176.718 293.689,177.054 293.906 C 177.303 294.068,177.608 294.560,177.732 295.000 C 177.855 295.440,177.877 295.006,177.781 294.036 C 177.685 293.066,177.488 292.166,177.344 292.036 C 177.200 291.906,177.182 292.205,177.303 292.700 M126.400 292.953 C 126.400 293.283,126.580 293.664,126.800 293.800 C 127.020 293.936,127.200 293.777,127.200 293.447 C 127.200 293.117,127.020 292.736,126.800 292.600 C 126.580 292.464,126.400 292.623,126.400 292.953 M279.817 293.172 C 279.416 293.821,280.287 294.018,280.804 293.396 C 281.206 292.911,281.181 292.800,280.673 292.800 C 280.329 292.800,279.944 292.968,279.817 293.172 M117.400 294.000 C 117.264 294.220,117.423 294.400,117.753 294.400 C 118.083 294.400,118.464 294.220,118.600 294.000 C 118.736 293.780,118.577 293.600,118.247 293.600 C 117.917 293.600,117.536 293.780,117.400 294.000 M166.700 293.882 C 167.195 293.978,168.005 293.978,168.500 293.882 C 168.995 293.787,168.590 293.709,167.600 293.709 C 166.610 293.709,166.205 293.787,166.700 293.882 M158.046 295.552 C 157.521 295.955,157.254 296.386,157.454 296.510 C 157.654 296.633,158.204 296.299,158.678 295.767 C 159.696 294.624,159.388 294.519,158.046 295.552 M238.219 295.300 C 238.379 295.719,238.298 296.000,238.019 296.000 C 237.763 296.000,237.678 296.203,237.832 296.451 C 238.020 296.757,238.236 296.679,238.497 296.213 C 238.758 295.747,238.732 295.373,238.418 295.061 C 238.065 294.712,238.017 294.769,238.219 295.300 M263.819 295.300 C 263.979 295.719,263.898 296.000,263.619 296.000 C 263.363 296.000,263.278 296.203,263.432 296.451 C 263.620 296.757,263.836 296.679,264.097 296.213 C 264.358 295.747,264.332 295.373,264.018 295.061 C 263.665 294.712,263.617 294.769,263.819 295.300 M292.000 296.154 C 292.000 296.779,293.069 297.335,293.361 296.863 C 293.464 296.696,293.200 296.343,292.774 296.077 C 292.147 295.685,292.000 295.700,292.000 296.154 M272.800 297.138 C 272.800 297.324,273.142 297.785,273.559 298.163 C 274.287 298.821,274.316 298.807,274.259 297.825 C 274.205 296.884,272.800 296.222,272.800 297.138 M96.909 298.800 C 96.909 299.790,96.987 300.195,97.082 299.700 C 97.178 299.205,97.178 298.395,97.082 297.900 C 96.987 297.405,96.909 297.810,96.909 298.800 M296.176 297.813 C 297.092 298.506,297.600 298.564,297.600 297.976 C 297.600 297.743,297.432 297.656,297.228 297.783 C 297.023 297.909,296.742 297.830,296.604 297.607 C 296.466 297.383,296.138 297.206,295.876 297.213 C 295.614 297.220,295.749 297.490,296.176 297.813 M266.400 298.376 C 266.400 298.829,266.580 299.200,266.800 299.200 C 267.020 299.200,267.200 298.941,267.200 298.624 C 267.200 298.307,267.020 297.936,266.800 297.800 C 266.580 297.664,266.400 297.923,266.400 298.376 M135.200 300.864 C 134.430 301.517,134.048 301.994,134.352 301.925 C 134.935 301.793,136.936 299.998,136.724 299.797 C 136.656 299.731,135.970 300.212,135.200 300.864 M177.683 300.867 C 177.637 301.673,177.375 302.425,177.100 302.536 C 176.724 302.689,176.748 302.845,177.200 303.170 C 177.733 303.552,177.733 303.644,177.200 304.000 C 176.692 304.339,176.686 304.455,177.158 304.760 C 177.550 305.012,177.637 305.514,177.451 306.447 C 177.264 307.381,177.311 307.649,177.608 307.352 C 177.866 307.094,177.980 305.459,177.899 303.164 C 177.826 301.094,177.729 300.060,177.683 300.867 M288.880 300.080 C 288.329 300.631,288.222 301.757,288.752 301.430 C 289.054 301.243,289.674 299.600,289.443 299.600 C 289.397 299.600,289.144 299.816,288.880 300.080 M155.309 300.809 C 155.276 301.253,155.418 301.513,155.624 301.385 C 156.079 301.104,156.127 300.000,155.685 300.000 C 155.512 300.000,155.343 300.364,155.309 300.809 M205.293 300.619 C 205.103 300.960,204.554 301.268,204.073 301.304 C 203.593 301.341,203.200 301.512,203.200 301.685 C 203.200 301.858,202.885 302.014,202.500 302.032 C 202.115 302.049,201.993 302.143,202.228 302.241 C 202.881 302.512,205.472 301.312,205.739 300.615 C 206.045 299.817,205.740 299.820,205.293 300.619 M105.742 300.893 C 105.328 301.563,106.015 301.757,106.629 301.143 C 107.175 300.597,107.172 300.533,106.601 300.533 C 106.251 300.533,105.865 300.695,105.742 300.893 M162.222 300.764 C 161.909 301.271,162.416 302.461,162.879 302.307 C 163.393 302.136,163.229 301.369,162.711 301.516 C 162.486 301.580,162.408 301.355,162.538 301.016 C 162.796 300.346,162.585 300.177,162.222 300.764 M114.750 301.200 C 114.650 301.997,114.582 302.210,114.235 302.800 C 113.950 303.286,113.984 303.306,114.416 302.905 C 114.939 302.421,115.386 300.800,114.997 300.800 C 114.889 300.800,114.778 300.980,114.750 301.200 M212.451 301.560 C 212.149 301.751,211.984 302.153,212.084 302.453 C 212.211 302.832,212.412 302.725,212.747 302.099 C 213.279 301.105,213.251 301.054,212.451 301.560 M97.900 301.882 C 98.395 301.978,99.205 301.978,99.700 301.882 C 100.195 301.787,99.790 301.709,98.800 301.709 C 97.810 301.709,97.405 301.787,97.900 301.882 M282.984 302.027 C 282.562 302.709,283.171 303.011,283.967 302.514 C 284.517 302.170,284.829 302.174,285.229 302.529 C 285.672 302.921,285.672 302.882,285.232 302.300 C 284.642 301.521,283.390 301.369,282.984 302.027 M196.400 302.400 C 196.400 302.620,196.940 302.800,197.600 302.800 C 198.260 302.800,198.800 302.620,198.800 302.400 C 198.800 302.180,198.260 302.000,197.600 302.000 C 196.940 302.000,196.400 302.180,196.400 302.400 M288.800 302.502 C 288.800 303.358,289.847 304.171,290.204 303.593 C 290.356 303.347,290.417 303.108,290.340 303.060 C 290.263 303.013,289.885 302.733,289.500 302.438 C 288.906 301.983,288.800 301.993,288.800 302.502 M155.600 303.327 C 155.600 303.643,155.870 304.126,156.200 304.400 C 156.615 304.744,156.800 304.759,156.800 304.449 C 156.800 304.202,156.609 304.000,156.376 304.000 C 156.143 304.000,156.056 303.832,156.183 303.628 C 156.309 303.423,156.230 303.142,156.007 303.004 C 155.783 302.866,155.600 303.011,155.600 303.327 M165.070 303.063 C 164.710 303.424,165.571 304.400,166.249 304.400 C 166.928 304.400,166.958 303.918,166.320 303.280 C 165.778 302.738,165.452 302.681,165.070 303.063 M210.460 303.980 C 210.548 304.244,210.750 304.447,210.910 304.430 C 211.388 304.381,211.296 303.832,210.780 303.660 C 210.516 303.572,210.372 303.716,210.460 303.980 M152.028 305.300 C 152.052 306.389,152.112 306.470,152.400 305.800 C 152.875 304.695,152.875 304.000,152.400 304.000 C 152.180 304.000,152.013 304.585,152.028 305.300 M108.159 306.164 C 108.039 306.474,107.484 306.843,106.924 306.983 C 106.364 307.124,105.992 307.325,106.097 307.431 C 106.446 307.780,108.286 306.873,108.533 306.231 C 108.666 305.884,108.685 305.600,108.575 305.600 C 108.465 305.600,108.278 305.854,108.159 306.164 M305.488 306.055 C 305.100 306.272,304.888 306.619,305.017 306.828 C 305.149 307.041,305.522 306.935,305.873 306.584 C 306.643 305.814,306.433 305.526,305.488 306.055 M134.971 307.248 C 134.971 307.662,135.091 308.000,135.237 308.000 C 135.526 308.000,136.593 306.819,136.349 306.769 C 135.138 306.521,134.971 306.578,134.971 307.248 M231.417 306.772 C 231.016 307.421,231.887 307.618,232.404 306.996 C 232.806 306.511,232.781 306.400,232.273 306.400 C 231.929 306.400,231.544 306.568,231.417 306.772 M257.017 306.772 C 256.616 307.421,257.487 307.618,258.004 306.996 C 258.406 306.511,258.381 306.400,257.873 306.400 C 257.529 306.400,257.144 306.568,257.017 306.772 M145.200 308.376 C 145.200 308.803,145.380 309.264,145.600 309.400 C 145.827 309.540,146.000 309.204,146.000 308.624 C 146.000 308.061,145.820 307.600,145.600 307.600 C 145.380 307.600,145.200 307.949,145.200 308.376 M142.497 312.205 C 143.036 312.793,143.302 312.858,143.670 312.490 C 143.932 312.228,143.999 311.875,143.819 311.707 C 143.638 311.538,143.408 311.633,143.306 311.917 C 143.159 312.329,142.989 312.334,142.461 311.939 C 141.917 311.531,141.923 311.578,142.497 312.205 M141.600 317.000 C 141.600 317.330,141.780 317.600,142.000 317.600 C 142.220 317.600,142.400 317.330,142.400 317.000 C 142.400 316.670,142.220 316.400,142.000 316.400 C 141.780 316.400,141.600 316.670,141.600 317.000 M145.212 317.184 C 144.888 317.389,144.721 317.654,144.841 317.774 C 144.960 317.894,145.405 317.729,145.829 317.409 C 146.673 316.771,146.160 316.585,145.212 317.184 " stroke="none" fill="#8c836b" fill-rule="evenodd"></path><path id="path3" d="M148.900 104.900 C 148.992 105.175,149.307 105.400,149.600 105.400 C 149.893 105.400,150.208 105.175,150.300 104.900 C 150.399 104.603,150.116 104.400,149.600 104.400 C 149.084 104.400,148.801 104.603,148.900 104.900 M154.498 104.900 C 154.588 105.175,155.188 105.432,155.831 105.472 C 156.474 105.511,156.685 105.453,156.300 105.342 C 155.915 105.232,155.600 104.975,155.600 104.771 C 155.600 104.567,155.315 104.400,154.967 104.400 C 154.618 104.400,154.407 104.625,154.498 104.900 M160.800 105.000 C 160.800 105.330,160.980 105.600,161.200 105.600 C 161.420 105.600,161.600 105.330,161.600 105.000 C 161.600 104.670,161.420 104.400,161.200 104.400 C 160.980 104.400,160.800 104.670,160.800 105.000 M174.800 105.033 C 174.800 105.382,175.014 105.595,175.275 105.508 C 176.017 105.261,176.140 104.400,175.433 104.400 C 175.085 104.400,174.800 104.685,174.800 105.033 M180.098 104.900 C 180.188 105.175,180.788 105.432,181.431 105.472 C 182.074 105.511,182.285 105.453,181.900 105.342 C 181.515 105.232,181.200 104.975,181.200 104.771 C 181.200 104.567,180.915 104.400,180.567 104.400 C 180.218 104.400,180.007 104.625,180.098 104.900 M186.400 105.000 C 186.400 105.330,186.580 105.600,186.800 105.600 C 187.020 105.600,187.200 105.330,187.200 105.000 C 187.200 104.670,187.020 104.400,186.800 104.400 C 186.580 104.400,186.400 104.670,186.400 105.000 M200.400 105.033 C 200.400 105.382,200.614 105.595,200.875 105.508 C 201.617 105.261,201.740 104.400,201.033 104.400 C 200.685 104.400,200.400 104.685,200.400 105.033 M211.200 104.809 C 211.200 105.038,211.478 105.332,211.817 105.462 C 212.755 105.822,212.866 105.433,211.982 104.881 C 211.487 104.572,211.200 104.546,211.200 104.809 M219.168 107.362 C 219.795 108.116,220.939 108.220,220.702 107.500 C 220.611 107.225,220.110 106.938,219.588 106.862 C 218.759 106.741,218.706 106.804,219.168 107.362 M137.596 108.204 C 137.057 108.855,137.480 108.991,138.343 108.444 C 138.672 108.235,138.729 108.004,138.488 107.854 C 138.269 107.719,137.868 107.877,137.596 108.204 M223.772 108.845 C 223.408 109.434,224.359 109.995,225.164 109.667 C 225.660 109.464,225.601 109.378,224.894 109.275 C 224.396 109.202,224.091 108.976,224.218 108.771 C 224.344 108.567,224.357 108.400,224.247 108.400 C 224.137 108.400,223.924 108.600,223.772 108.845 M252.400 147.533 C 252.400 148.010,252.564 148.400,252.765 148.400 C 253.171 148.400,253.111 147.377,252.678 146.945 C 252.525 146.792,252.400 147.057,252.400 147.533 M159.061 153.500 C 158.959 153.665,160.793 153.750,163.138 153.689 C 169.737 153.518,170.334 153.335,164.524 153.264 C 161.622 153.229,159.163 153.335,159.061 153.500 M171.300 153.487 C 171.905 153.578,172.895 153.578,173.500 153.487 C 174.105 153.395,173.610 153.320,172.400 153.320 C 171.190 153.320,170.695 153.395,171.300 153.487 M176.100 153.487 C 176.705 153.578,177.695 153.578,178.300 153.487 C 178.905 153.395,178.410 153.320,177.200 153.320 C 175.990 153.320,175.495 153.395,176.100 153.487 M181.900 153.495 C 183.055 153.576,184.945 153.576,186.100 153.495 C 187.255 153.414,186.310 153.348,184.000 153.348 C 181.690 153.348,180.745 153.414,181.900 153.495 M190.300 153.493 C 191.235 153.577,192.765 153.577,193.700 153.493 C 194.635 153.409,193.870 153.340,192.000 153.340 C 190.130 153.340,189.365 153.409,190.300 153.493 M196.900 153.487 C 197.505 153.578,198.495 153.578,199.100 153.487 C 199.705 153.395,199.210 153.320,198.000 153.320 C 196.790 153.320,196.295 153.395,196.900 153.487 M201.700 153.487 C 202.305 153.578,203.295 153.578,203.900 153.487 C 204.505 153.395,204.010 153.320,202.800 153.320 C 201.590 153.320,201.095 153.395,201.700 153.487 M207.500 153.495 C 208.655 153.576,210.545 153.576,211.700 153.495 C 212.855 153.414,211.910 153.348,209.600 153.348 C 207.290 153.348,206.345 153.414,207.500 153.495 M220.400 153.622 C 224.325 153.827,227.767 154.245,229.781 154.759 C 231.531 155.206,233.041 155.492,233.138 155.395 C 233.338 155.195,232.742 154.978,231.000 154.615 C 230.340 154.477,229.080 154.168,228.200 153.929 C 227.320 153.689,223.810 153.449,220.400 153.396 L 214.200 153.298 220.400 153.622 M154.749 155.604 C 152.276 157.320,149.693 160.054,148.849 161.848 C 148.551 162.481,148.148 163.313,147.953 163.695 C 147.759 164.077,147.629 165.607,147.665 167.095 L 147.729 169.800 147.965 167.000 C 148.382 162.040,151.630 157.437,156.379 155.081 C 157.577 154.487,158.207 154.009,157.779 154.020 C 157.350 154.031,155.987 154.744,154.749 155.604 M234.000 155.867 C 234.330 155.980,235.143 156.314,235.806 156.610 C 238.447 157.789,239.490 158.075,238.600 157.377 C 238.160 157.033,237.301 156.648,236.692 156.523 C 236.082 156.399,235.486 156.140,235.368 155.948 C 235.250 155.757,234.758 155.614,234.276 155.632 C 233.713 155.652,233.614 155.736,234.000 155.867 M241.006 158.850 C 243.226 160.034,247.499 162.846,249.355 164.344 C 250.210 165.035,251.110 165.599,251.355 165.599 C 251.600 165.598,251.209 165.237,250.487 164.796 C 249.764 164.356,249.070 163.726,248.944 163.398 C 248.818 163.069,248.464 162.800,248.157 162.800 C 247.851 162.800,247.600 162.620,247.600 162.400 C 247.600 162.180,247.407 162.000,247.172 162.000 C 246.937 162.000,245.991 161.482,245.070 160.848 C 242.766 159.263,240.471 158.000,239.894 158.000 C 239.629 158.000,240.129 158.383,241.006 158.850 M147.761 176.400 C 147.761 179.810,147.822 181.205,147.897 179.500 C 147.972 177.795,147.972 175.005,147.897 173.300 C 147.822 171.595,147.761 172.990,147.761 176.400 M147.761 189.200 C 147.761 192.610,147.822 194.005,147.897 192.300 C 147.972 190.595,147.972 187.805,147.897 186.100 C 147.822 184.395,147.761 185.790,147.761 189.200 M133.482 193.068 C 133.195 193.531,133.863 194.670,134.215 194.318 C 134.357 194.176,134.302 193.753,134.092 193.379 C 133.882 193.004,133.608 192.864,133.482 193.068 M147.737 199.000 C 147.739 200.760,147.809 201.430,147.893 200.489 C 147.978 199.549,147.977 198.109,147.891 197.289 C 147.805 196.470,147.736 197.240,147.737 199.000 M145.200 288.400 C 145.200 289.147,145.307 289.253,145.680 288.880 C 146.053 288.507,146.053 288.293,145.680 287.920 C 145.307 287.547,145.200 287.653,145.200 288.400 M145.200 292.753 C 145.200 294.293,145.388 295.669,145.617 295.811 C 145.895 295.982,146.002 295.114,145.936 293.208 C 145.808 289.486,145.200 289.110,145.200 292.753 M145.200 301.553 C 145.200 302.213,145.380 302.864,145.600 303.000 C 145.833 303.144,146.000 302.745,146.000 302.047 C 146.000 301.387,145.820 300.736,145.600 300.600 C 145.367 300.456,145.200 300.855,145.200 301.553 M145.200 305.153 C 145.200 305.593,145.380 306.064,145.600 306.200 C 145.820 306.336,146.000 306.087,146.000 305.647 C 146.000 305.207,145.820 304.736,145.600 304.600 C 145.380 304.464,145.200 304.713,145.200 305.153 " stroke="none" fill="#90744f" fill-rule="evenodd"></path><path id="path4" d="M169.200 153.600 C 168.750 153.891,168.950 153.988,170.000 153.988 C 171.050 153.988,171.250 153.891,170.800 153.600 C 170.470 153.387,170.110 153.212,170.000 153.212 C 169.890 153.212,169.530 153.387,169.200 153.600 M173.200 153.610 C 172.032 153.848,172.225 153.903,174.367 153.947 C 175.778 153.976,176.858 153.935,176.767 153.856 C 176.334 153.483,174.461 153.354,173.200 153.610 M178.324 153.633 C 177.816 153.761,179.740 153.896,182.600 153.934 C 185.460 153.971,188.008 153.867,188.262 153.701 C 188.800 153.350,179.694 153.288,178.324 153.633 M194.800 153.600 C 194.350 153.891,194.550 153.988,195.600 153.988 C 196.650 153.988,196.850 153.891,196.400 153.600 C 196.070 153.387,195.710 153.212,195.600 153.212 C 195.490 153.212,195.130 153.387,194.800 153.600 M198.800 153.610 C 197.632 153.848,197.825 153.903,199.967 153.947 C 201.378 153.976,202.458 153.935,202.367 153.856 C 201.934 153.483,200.061 153.354,198.800 153.610 M203.924 153.633 C 203.416 153.761,205.340 153.896,208.200 153.934 C 211.060 153.971,213.608 153.867,213.862 153.701 C 214.400 153.350,205.294 153.288,203.924 153.633 M157.963 154.356 C 152.602 156.454,147.923 162.076,148.044 166.275 L 148.088 167.800 148.412 166.163 C 149.605 160.149,154.505 155.477,161.000 154.164 L 163.400 153.678 161.600 153.658 C 160.610 153.647,158.973 153.961,157.963 154.356 M220.400 153.987 C 221.390 154.182,223.079 154.354,224.153 154.370 C 230.574 154.468,242.264 159.359,248.955 164.748 C 249.810 165.436,250.809 166.000,251.175 166.000 C 251.541 166.000,252.053 166.213,252.313 166.473 C 252.574 166.734,252.907 166.826,253.055 166.679 C 253.202 166.531,252.629 166.121,251.781 165.766 C 250.934 165.412,249.511 164.527,248.620 163.800 C 246.385 161.974,240.972 158.689,238.800 157.839 C 237.810 157.451,236.460 156.882,235.800 156.575 C 233.234 155.378,226.534 153.971,222.600 153.804 C 219.561 153.674,219.033 153.718,220.400 153.987 M147.929 169.000 C 147.671 170.199,147.796 170.738,148.230 170.303 C 148.357 170.177,148.399 169.562,148.324 168.937 L 148.187 167.800 147.929 169.000 M148.101 172.200 C 148.105 173.080,148.187 173.393,148.283 172.895 C 148.379 172.398,148.375 171.678,148.275 171.295 C 148.175 170.913,148.096 171.320,148.101 172.200 M148.120 176.400 C 148.120 177.610,148.195 178.105,148.287 177.500 C 148.378 176.895,148.378 175.905,148.287 175.300 C 148.195 174.695,148.120 175.190,148.120 176.400 M147.891 182.108 C 147.784 182.387,147.834 183.332,148.002 184.208 L 148.308 185.800 148.354 183.700 C 148.400 181.611,148.262 181.139,147.891 182.108 M148.137 190.200 C 148.139 191.960,148.209 192.630,148.293 191.689 C 148.378 190.749,148.377 189.309,148.291 188.489 C 148.205 187.670,148.136 188.440,148.137 190.200 M147.929 194.600 C 147.671 195.799,147.796 196.338,148.230 195.903 C 148.357 195.777,148.399 195.162,148.324 194.537 L 148.187 193.400 147.929 194.600 M148.101 197.800 C 148.105 198.680,148.187 198.993,148.283 198.495 C 148.379 197.998,148.375 197.278,148.275 196.895 C 148.175 196.513,148.096 196.920,148.101 197.800 M148.054 200.667 C 148.025 201.144,147.896 201.864,147.770 202.267 C 147.552 202.961,147.564 202.962,147.996 202.288 C 148.247 201.897,148.375 201.177,148.281 200.688 C 148.109 199.801,148.109 199.801,148.054 200.667 M150.800 246.167 C 150.800 246.588,152.005 247.728,152.221 247.512 C 152.322 247.411,152.044 247.002,151.602 246.602 C 151.161 246.203,150.800 246.007,150.800 246.167 M303.507 292.290 C 304.226 292.379,305.306 292.377,305.907 292.286 C 306.508 292.195,305.920 292.122,304.600 292.124 C 303.280 292.126,302.788 292.201,303.507 292.290 M119.867 294.267 C 119.720 294.413,119.611 294.908,119.625 295.367 C 119.649 296.133,119.682 296.123,120.034 295.242 C 120.426 294.263,120.344 293.789,119.867 294.267 M121.222 302.600 C 121.227 303.129,122.342 304.591,122.569 304.365 C 122.666 304.268,122.402 303.741,121.982 303.194 C 121.561 302.647,121.220 302.380,121.222 302.600 M279.600 306.167 C 279.600 306.588,280.805 307.728,281.021 307.512 C 281.122 307.411,280.844 307.002,280.402 306.602 C 279.961 306.203,279.600 306.007,279.600 306.167 " stroke="none" fill="#8c745c" fill-rule="evenodd"></path></g></svg>